<?xml version="1.0" standalone="no"?>
<!DOCTYPE svg PUBLIC "-//W3C//DTD SVG 20010904//EN"
 "http://www.w3.org/TR/2001/REC-SVG-20010904/DTD/svg10.dtd">
<svg version="1.0" xmlns="http://www.w3.org/2000/svg"
 width="700.000000pt" height="700.000000pt" viewBox="0 0 700.000000 700.000000"
 preserveAspectRatio="xMidYMid meet">
<metadata>
Created by potrace 1.11, written by Peter Selinger 2001-2013
</metadata>
<g transform="translate(0.000000,700.000000) scale(0.100000,-0.100000)"
fill="#000000" stroke="none">
<path d="M0 3530 l0 -3470 3470 0 3470 0 0 3470 0 3470 -3470 0 -3470 0 0
-3470z m2101 2640 c205 -21 341 -58 480 -132 380 -202 613 -629 659 -1202 49
-622 -86 -1112 -394 -1434 -166 -173 -395 -283 -683 -328 -91 -14 -221 -17
-820 -21 l-713 -5 0 1566 0 1566 684 0 c393 0 728 -4 787 -10z m3449 -9 c308
-54 500 -183 629 -422 105 -195 110 -457 12 -662 -63 -133 -182 -259 -304
-322 -31 -16 -57 -33 -57 -37 0 -3 24 -14 53 -23 203 -67 377 -217 463 -402
52 -111 68 -189 68 -338 0 -159 -22 -253 -94 -401 -130 -268 -336 -420 -635
-469 -118 -20 -694 -34 -1367 -35 l-518 0 0 1566 0 1565 843 -4 c563 -3 864
-8 907 -16z m-1070 -4851 l0 -270 -1965 0 -1965 0 0 270 0 270 1965 0 1965 0
0 -270z"/>
<path d="M1252 4618 l3 -1043 205 -3 c255 -4 575 12 655 33 262 67 395 241
461 600 27 145 27 675 1 815 -53 281 -168 461 -350 550 -45 22 -109 47 -142
55 -90 23 -291 35 -578 35 l-257 0 2 -1042z"/>
<path d="M4428 5664 c-5 -4 -8 -169 -8 -366 l0 -358 423 0 c242 0 450 5 487
11 77 12 172 54 221 97 73 64 117 193 104 301 -20 161 -109 261 -267 302 -50
13 -949 25 -960 13z"/>
<path d="M4422 3998 l3 -423 462 2 c282 1 491 6 535 13 146 22 254 95 309 206
28 56 33 78 37 162 12 244 -105 390 -349 438 -67 13 -174 17 -542 21 l-457 5
2 -424z"/>
</g>
</svg>
