<?xml version="1.0" encoding="UTF-8" standalone="no"?><!DOCTYPE svg PUBLIC "-//W3C//DTD SVG 1.1//EN" "http://www.w3.org/Graphics/SVG/1.1/DTD/svg11.dtd"><svg width="100%" height="100%" viewBox="0 0 64 64" version="1.1" xmlns="http://www.w3.org/2000/svg" xmlns:xlink="http://www.w3.org/1999/xlink" xml:space="preserve" xmlns:serif="http://www.serif.com/" style="fill-rule:evenodd;clip-rule:evenodd;stroke-linejoin:round;stroke-miterlimit:2;"><g><circle cx="32" cy="32" r="32" style="fill:#5c2d91;"/><g><path d="M7.4,41.25c-0.377,0.006 -0.74,-0.146 -1,-0.42c-0.267,-0.264 -0.415,-0.625 -0.41,-1c-0.003,-0.375 0.145,-0.735 0.41,-1c0.257,-0.278 0.621,-0.435 1,-0.43c0.378,-0.001 0.74,0.155 1,0.43c0.27,0.263 0.421,0.624 0.42,1c0.004,0.377 -0.149,0.739 -0.42,1c-0.262,0.27 -0.623,0.422 -1,0.42Z" style="fill:#f6f6f6;fill-rule:nonzero;"/><path d="M27.27,41l-2.62,0l-9.37,-14.54c-0.233,-0.358 -0.427,-0.741 -0.58,-1.14l-0.08,0c0.089,0.83 0.122,1.665 0.1,2.5l0,13.18l-2.13,0l0,-18.23l2.77,0l9.12,14.28c0.38,0.593 0.627,1 0.74,1.22l0.05,0c-0.105,-0.889 -0.149,-1.785 -0.13,-2.68l0,-12.82l2.13,0l0,18.23Z" style="fill:#f6f6f6;fill-rule:nonzero;"/><path d="M41.69,41l-9.69,0l0,-18.23l9.24,0l0,1.93l-7.06,0l0,6.06l6.58,0l0,1.92l-6.58,0l0,6.32l7.52,0l-0.01,2Z" style="fill:#f6f6f6;fill-rule:nonzero;"/><path d="M56,24.7l-5.3,0l0,16.3l-2.13,0l0,-16.3l-5.24,0l0,-1.93l12.67,0l0,1.93Z" style="fill:#f6f6f6;fill-rule:nonzero;"/></g></g></svg>