<?xml version="1.0" encoding="UTF-8" standalone="no"?><!DOCTYPE svg PUBLIC "-//W3C//DTD SVG 1.1//EN" "http://www.w3.org/Graphics/SVG/1.1/DTD/svg11.dtd"><svg width="100%" height="100%" viewBox="0 0 24 24" version="1.1" xmlns="http://www.w3.org/2000/svg" xmlns:xlink="http://www.w3.org/1999/xlink" xml:space="preserve" xmlns:serif="http://www.serif.com/" style="fill-rule:evenodd;clip-rule:evenodd;stroke-linejoin:round;stroke-miterlimit:2;"><path d="M23.546,10.93l-10.479,-10.478c-0.604,-0.603 -1.582,-0.603 -2.188,0l-2.171,2.175l2.76,2.76c0.645,-0.215 1.379,-0.07 1.889,0.441c0.516,0.515 0.658,1.258 0.438,1.9l2.658,2.66c0.645,-0.223 1.387,-0.078 1.9,0.435c0.721,0.72 0.721,1.884 0,2.604c-0.719,0.719 -1.881,0.719 -2.6,-0c-0.539,-0.541 -0.674,-1.337 -0.404,-1.996l-2.489,-2.476l0,6.525c0.176,0.086 0.342,0.203 0.488,0.348c0.713,0.721 0.713,1.883 0,2.6c-0.719,0.721 -1.889,0.721 -2.609,-0c-0.719,-0.719 -0.719,-1.879 0,-2.598c0.182,-0.18 0.387,-0.316 0.605,-0.406l0,-6.589c-0.217,-0.091 -0.424,-0.222 -0.6,-0.401c-0.545,-0.545 -0.676,-1.342 -0.396,-2.009l-2.712,-2.725l-7.186,7.181c-0.6,0.605 -0.6,1.584 0,2.189l10.48,10.477c0.604,0.604 1.582,0.604 2.186,-0l10.43,-10.43c0.605,-0.603 0.605,-1.582 0,-2.187" style="fill:#f05133;fill-rule:nonzero;"/></svg>