<?xml version="1.0" encoding="UTF-8" standalone="no"?><!DOCTYPE svg PUBLIC "-//W3C//DTD SVG 1.1//EN" "http://www.w3.org/Graphics/SVG/1.1/DTD/svg11.dtd"><svg width="100%" height="100%" viewBox="0 0 27 27" version="1.1" xmlns="http://www.w3.org/2000/svg" xmlns:xlink="http://www.w3.org/1999/xlink" xml:space="preserve" xmlns:serif="http://www.serif.com/" style="fill-rule:evenodd;clip-rule:evenodd;stroke-linejoin:round;stroke-miterlimit:2;"><g><path d="M12.895,0.199l-10.572,6.101c-0.395,0.228 -0.638,0.65 -0.638,1.106l-0,12.211c-0,0.456 0.243,0.878 0.638,1.106l10.572,6.106c0.395,0.228 0.882,0.228 1.277,-0l10.57,-6.106c0.395,-0.228 0.638,-0.65 0.638,-1.106l-0,-12.211c-0,-0.456 -0.243,-0.878 -0.639,-1.106l-10.569,-6.101c-0.197,-0.114 -0.418,-0.171 -0.638,-0.171c-0.221,0 -0.441,0.057 -0.639,0.171Z" style="fill:url(#_Linear1);fill-rule:nonzero;"/><path d="M1.948,20.393c0.1,0.131 0.227,0.244 0.375,0.33l9.069,5.238l1.51,0.868c0.226,0.13 0.483,0.185 0.736,0.167c0.085,-0.007 0.169,-0.023 0.252,-0.047l11.148,-20.413c-0.086,-0.092 -0.185,-0.171 -0.297,-0.236l-6.922,-3.996l-3.658,-2.105c-0.105,-0.06 -0.217,-0.103 -0.332,-0.132l-11.881,20.326Z" style="fill:url(#_Linear2);fill-rule:nonzero;"/><path d="M13.406,0.035c-0.177,0.018 -0.351,0.072 -0.511,0.164l-10.541,6.084l11.364,20.704c0.158,-0.023 0.312,-0.076 0.454,-0.158l10.57,-6.106c0.326,-0.189 0.549,-0.509 0.617,-0.872l-11.587,-19.795c-0.086,-0.017 -0.173,-0.026 -0.26,-0.026c-0.035,0 -0.071,0.002 -0.106,0.005Z" style="fill:url(#_Linear3);fill-rule:nonzero;"/><clipPath id="_clip4"><path d="M12.895,0.199l-10.572,6.101c-0.395,0.228 -0.638,0.65 -0.638,1.106l-0,12.211c-0,0.456 0.243,0.878 0.638,1.106l10.572,6.106c0.395,0.228 0.882,0.228 1.277,-0l10.57,-6.106c0.395,-0.228 0.638,-0.65 0.638,-1.106l-0,-12.211c-0,-0.456 -0.243,-0.878 -0.639,-1.106l-10.569,-6.101c-0.197,-0.114 -0.418,-0.171 -0.638,-0.171c-0.221,0 -0.441,0.057 -0.639,0.171Z" clip-rule="nonzero"/></clipPath><g clip-path="url(#_clip4)"><path d="M24.769,20.723l-10.583,6.106c-0.146,0.084 -0.305,0.136 -0.467,0.159l0.21,0.383l11.755,-6.804l0,-0.16l-0.29,-0.497c-0.088,0.339 -0.317,0.635 -0.625,0.813Z" style="fill:url(#_Linear5);fill-rule:nonzero;"/></g><clipPath id="_clip6"><path d="M12.895,0.199l-10.572,6.101c-0.395,0.228 -0.638,0.65 -0.638,1.106l-0,12.211c-0,0.456 0.243,0.878 0.638,1.106l10.572,6.106c0.395,0.228 0.882,0.228 1.277,-0l10.57,-6.106c0.395,-0.228 0.638,-0.65 0.638,-1.106l-0,-12.211c-0,-0.456 -0.243,-0.878 -0.639,-1.106l-10.569,-6.101c-0.197,-0.114 -0.418,-0.171 -0.638,-0.171c-0.221,0 -0.441,0.057 -0.639,0.171Z" clip-rule="nonzero"/></clipPath><g clip-path="url(#_clip6)"><path d="M24.769,20.723l-10.583,6.106c-0.146,0.084 -0.305,0.136 -0.467,0.159l0.21,0.383l11.755,-6.804l0,-0.16l-0.29,-0.497c-0.088,0.339 -0.317,0.635 -0.625,0.813Z" style="fill:url(#_Linear7);fill-rule:nonzero;"/></g></g><defs><linearGradient id="_Linear1" x1="0" y1="0" x2="1" y2="0" gradientUnits="userSpaceOnUse" gradientTransform="matrix(-9.55106,19.4842,-19.4842,-9.55106,17.8309,4.74276)"><stop offset="0" style="stop-color:#697e66;stop-opacity:1"/><stop offset="1" style="stop-color:#82a178;stop-opacity:1"/></linearGradient><linearGradient id="_Linear2" x1="0" y1="0" x2="1" y2="0" gradientUnits="userSpaceOnUse" gradientTransform="matrix(26.7996,-19.801,19.801,26.7996,11.9233,14.9397)"><stop offset="0" style="stop-color:#697e66;stop-opacity:1"/><stop offset="0.14" style="stop-color:#697e66;stop-opacity:1"/><stop offset="0.91" style="stop-color:#9ab48e;stop-opacity:1"/><stop offset="1" style="stop-color:#9ab48e;stop-opacity:1"/></linearGradient><linearGradient id="_Linear3" x1="0" y1="0" x2="1" y2="0" gradientUnits="userSpaceOnUse" gradientTransform="matrix(24.4434,0,0,24.4434,1.31077,13.509)"><stop offset="0" style="stop-color:#9ab48e;stop-opacity:1"/><stop offset="0.09" style="stop-color:#9ab48e;stop-opacity:1"/><stop offset="0.86" style="stop-color:#697e66;stop-opacity:1"/><stop offset="1" style="stop-color:#697e66;stop-opacity:1"/></linearGradient><linearGradient id="_Linear5" x1="0" y1="0" x2="1" y2="0" gradientUnits="userSpaceOnUse" gradientTransform="matrix(24.4434,0,0,24.4434,1.31077,23.641)"><stop offset="0" style="stop-color:#9ab48e;stop-opacity:1"/><stop offset="0.09" style="stop-color:#9ab48e;stop-opacity:1"/><stop offset="0.86" style="stop-color:#697e66;stop-opacity:1"/><stop offset="1" style="stop-color:#697e66;stop-opacity:1"/></linearGradient><linearGradient id="_Linear7" x1="0" y1="0" x2="1" y2="0" gradientUnits="userSpaceOnUse" gradientTransform="matrix(-15.0751,30.7533,-30.7533,-15.0751,29.3153,4.1651)"><stop offset="0" style="stop-color:#697e66;stop-opacity:1"/><stop offset="1" style="stop-color:#82a178;stop-opacity:1"/></linearGradient></defs></svg>