<?xml version="1.0" encoding="UTF-8" standalone="no"?><!DOCTYPE svg PUBLIC "-//W3C//DTD SVG 1.1//EN" "http://www.w3.org/Graphics/SVG/1.1/DTD/svg11.dtd"><svg width="100%" height="100%" viewBox="0 0 24 24" version="1.1" xmlns="http://www.w3.org/2000/svg" xmlns:xlink="http://www.w3.org/1999/xlink" xml:space="preserve" xmlns:serif="http://www.serif.com/" style="fill-rule:evenodd;clip-rule:evenodd;stroke-linejoin:round;stroke-miterlimit:2;"><g id="Layer1"><path d="M24,6.5c0,-3.036 -2.24,-5.5 -5,-5.5l-14,-0c-2.76,-0 -5,2.464 -5,5.5l0,11c0,3.036 2.24,5.5 5,5.5l14,0c2.76,0 5,-2.464 5,-5.5l0,-11Z" style="fill:#3a3632;"/></g><path d="M14.715,6.25l-5.43,0c-2.562,0 -4.669,2.595 -4.669,5.75c0,3.153 2.106,5.748 4.666,5.75l5.433,0c2.562,0 4.669,-2.595 4.669,-5.75c0,-3.155 -2.107,-5.75 -4.669,-5.75Zm-0.119,9.474l-5.189,0c-1.635,-0.041 -2.963,-1.709 -2.963,-3.724c-0,-2.015 1.328,-3.683 2.963,-3.724l5.189,0c1.659,0 3.024,1.681 3.024,3.724c-0,2.043 -1.365,3.724 -3.024,3.724Z" style="fill:url(#_Linear1);fill-rule:nonzero;"/><defs><linearGradient id="_Linear1" x1="0" y1="0" x2="1" y2="0" gradientUnits="userSpaceOnUse" gradientTransform="matrix(1.23063e-06,0,0,1.29463e-06,1.53959,10.6719)"><stop offset="0" style="stop-color:#c74634;stop-opacity:1"/><stop offset="1" style="stop-color:#c74634;stop-opacity:1"/></linearGradient></defs></svg>