<?xml version="1.0" encoding="UTF-8" standalone="no"?><!DOCTYPE svg PUBLIC "-//W3C//DTD SVG 1.1//EN" "http://www.w3.org/Graphics/SVG/1.1/DTD/svg11.dtd"><svg width="100%" height="100%" viewBox="0 0 24 24" version="1.1" xmlns="http://www.w3.org/2000/svg" xmlns:xlink="http://www.w3.org/1999/xlink" xml:space="preserve" xmlns:serif="http://www.serif.com/" style="fill-rule:evenodd;clip-rule:evenodd;stroke-linejoin:round;stroke-miterlimit:2;"><path d="M17.086,0c-0.932,0.007 -1.86,0.143 -2.755,0.403l-0.063,0.02c-0.565,-0.1 -1.137,-0.155 -1.71,-0.165c-1.178,-0.02 -2.19,0.266 -3.006,0.742c-0.804,-0.279 -2.472,-0.76 -4.23,-0.664c-1.224,0.067 -2.56,0.44 -3.55,1.484c-0.987,1.045 -1.51,2.662 -1.4,4.862c0.03,0.607 0.204,1.597 0.49,2.88c0.288,1.281 0.69,2.782 1.194,4.151c0.503,1.37 1.054,2.6 1.915,3.436c0.43,0.42 1.022,0.771 1.72,0.742c0.49,-0.02 0.933,-0.235 1.315,-0.552c0.186,0.245 0.385,0.352 0.566,0.451c0.228,0.125 0.45,0.21 0.68,0.266c0.413,0.103 1.12,0.241 1.948,0.1c0.282,-0.047 0.579,-0.139 0.875,-0.27c0.01,0.33 0.024,0.653 0.037,0.98c0.04,1.036 0.067,1.993 0.378,2.832c0.05,0.137 0.187,0.843 0.727,1.466c0.54,0.624 1.598,1.013 2.803,0.755c0.85,-0.182 1.93,-0.51 2.649,-1.532c0.71,-1.01 1.03,-2.459 1.093,-4.809c0.014,-0.113 0.033,-0.225 0.055,-0.336l0.169,0.015l0.02,0c0.907,0.041 1.89,-0.088 2.713,-0.47c0.728,-0.337 1.279,-0.678 1.68,-1.283c0.1,-0.15 0.21,-0.33 0.24,-0.643c0.03,-0.312 -0.15,-0.8 -0.446,-1.025c-0.595,-0.452 -0.97,-0.28 -1.37,-0.197c-0.395,0.087 -0.798,0.136 -1.202,0.146c1.156,-1.947 1.985,-4.015 2.458,-5.845c0.28,-1.08 0.437,-2.076 0.45,-2.947c0.013,-0.87 -0.058,-1.642 -0.58,-2.309c-1.631,-2.084 -3.924,-2.66 -5.699,-2.68c-0.055,-0 -0.11,-0.002 -0.165,-0l0.001,-0.004Zm-0.047,0.64c1.678,-0.016 3.822,0.455 5.36,2.422c0.347,0.442 0.45,1.088 0.438,1.884c-0.013,0.795 -0.16,1.747 -0.43,2.79c-0.521,2.02 -1.507,4.375 -2.896,6.488c0.049,0.035 0.102,0.064 0.158,0.086c0.29,0.12 0.95,0.223 2.27,-0.048c0.332,-0.07 0.575,-0.117 0.827,0.075c0.124,0.105 0.192,0.263 0.183,0.425c-0.013,0.121 -0.058,0.237 -0.13,0.336c-0.255,0.383 -0.758,0.746 -1.403,1.045c-0.571,0.266 -1.39,0.405 -2.116,0.413c-0.364,0.004 -0.7,-0.024 -0.985,-0.113l-0.018,-0.007c-0.11,1.06 -0.363,3.153 -0.528,4.108c-0.132,0.77 -0.363,1.382 -0.804,1.84c-0.44,0.458 -1.063,0.734 -1.901,0.914c-1.038,0.223 -1.795,-0.017 -2.283,-0.428c-0.487,-0.41 -0.71,-0.954 -0.844,-1.287c-0.092,-0.23 -0.14,-0.528 -0.186,-0.926c-0.046,-0.398 -0.08,-0.885 -0.103,-1.434c-0.031,-0.841 -0.041,-1.682 -0.03,-2.523c-0.434,0.397 -0.972,0.661 -1.552,0.76c-0.69,0.117 -1.304,0.002 -1.671,-0.09c-0.181,-0.045 -0.356,-0.112 -0.52,-0.2c-0.17,-0.092 -0.332,-0.195 -0.44,-0.398c-0.063,-0.116 -0.083,-0.251 -0.057,-0.38c0.034,-0.132 0.11,-0.249 0.218,-0.332c0.198,-0.16 0.46,-0.25 0.855,-0.333c0.719,-0.148 0.97,-0.249 1.123,-0.37c0.13,-0.104 0.277,-0.314 0.537,-0.622c-0.001,-0.013 -0.002,-0.027 -0.003,-0.04c-0.465,-0.013 -0.921,-0.136 -1.33,-0.359c-0.15,0.158 -0.916,0.968 -1.85,2.092c-0.393,0.47 -0.827,0.74 -1.285,0.76c-0.458,0.02 -0.872,-0.212 -1.224,-0.553c-0.703,-0.683 -1.264,-1.858 -1.753,-3.186c-0.488,-1.328 -0.885,-2.807 -1.167,-4.067c-0.283,-1.26 -0.45,-2.276 -0.474,-2.766c-0.105,-2.082 0.382,-3.485 1.217,-4.37c0.836,-0.885 1.982,-1.22 3.099,-1.284c2.005,-0.115 3.909,0.584 4.294,0.734c0.742,-0.504 1.698,-0.818 2.892,-0.798c0.567,0.008 1.13,0.081 1.68,0.218l0.02,-0.009c0.242,-0.085 0.49,-0.157 0.74,-0.214c0.679,-0.158 1.373,-0.242 2.07,-0.25l0.002,-0.003Zm0.152,0.67l-0.146,-0c-0.573,0.008 -1.144,0.072 -1.704,0.192c1.246,0.552 2.187,1.402 2.85,2.25c0.461,0.587 0.841,1.233 1.132,1.92c0.11,0.264 0.184,0.487 0.226,0.66c0.02,0.087 0.035,0.16 0.04,0.236c0.004,0.048 -0,0.097 -0.012,0.144c-0,0.003 -0.005,0.01 -0.006,0.013c0.03,0.876 -0.187,1.47 -0.213,2.306c-0.02,0.606 0.135,1.318 0.173,2.095c0.036,0.73 -0.052,1.532 -0.526,2.32c0.04,0.047 0.076,0.095 0.114,0.143c1.254,-1.975 2.158,-4.16 2.64,-6.023c0.258,-1.003 0.395,-1.912 0.407,-2.632c0.01,-0.72 -0.124,-1.242 -0.295,-1.46c-1.342,-1.716 -3.158,-2.153 -4.68,-2.165l-0,0.001Zm-4.79,0.256c-1.182,0.003 -2.03,0.36 -2.673,0.895c-0.663,0.553 -1.108,1.31 -1.4,2.085c-0.347,0.92 -0.466,1.81 -0.513,2.414l0.013,-0.008c0.357,-0.2 0.826,-0.4 1.328,-0.516c0.502,-0.115 1.043,-0.15 1.533,0.04c0.49,0.19 0.895,0.636 1.042,1.314c0.704,3.257 -0.22,4.468 -0.56,5.382c-0.129,0.331 -0.239,0.669 -0.33,1.013c0.043,-0.01 0.086,-0.022 0.129,-0.026c0.24,-0.02 0.428,0.06 0.54,0.108c0.342,0.142 0.577,0.44 0.704,0.78c0.033,0.09 0.057,0.185 0.07,0.284c0.015,0.041 0.022,0.084 0.02,0.127c-0.038,1.246 -0.033,2.493 0.014,3.738c0.023,0.538 0.057,1.012 0.1,1.386c0.043,0.373 0.104,0.657 0.143,0.753c0.128,0.32 0.315,0.74 0.653,1.024c0.338,0.284 0.823,0.474 1.709,0.284c0.768,-0.165 1.242,-0.394 1.559,-0.723c0.316,-0.329 0.505,-0.787 0.626,-1.488c0.18,-1.05 0.545,-4.095 0.589,-4.668c-0.02,-0.432 0.044,-0.764 0.182,-1.017c0.142,-0.26 0.362,-0.419 0.552,-0.505c0.095,-0.043 0.184,-0.072 0.257,-0.093c-0.077,-0.111 -0.158,-0.219 -0.243,-0.325c-0.274,-0.332 -0.498,-0.702 -0.666,-1.099c-0.08,-0.164 -0.166,-0.325 -0.257,-0.483c-0.133,-0.24 -0.301,-0.54 -0.477,-0.877c-0.352,-0.675 -0.735,-1.493 -0.934,-2.29c-0.198,-0.796 -0.227,-1.62 0.28,-2.2c0.45,-0.517 1.24,-0.73 2.427,-0.61c-0.035,-0.106 -0.056,-0.193 -0.115,-0.333c-0.268,-0.631 -0.618,-1.224 -1.041,-1.764c-1.005,-1.285 -2.632,-2.559 -5.146,-2.6l-0.116,-0l0.001,-0.002Zm-6.642,0.052c-0.127,-0 -0.254,0.004 -0.38,0.011c-1.01,0.058 -1.965,0.351 -2.648,1.075c-0.684,0.724 -1.134,1.911 -1.036,3.876c0.019,0.372 0.18,1.414 0.459,2.652c0.277,1.238 0.67,2.695 1.142,3.982c0.473,1.287 1.046,2.407 1.59,2.937c0.274,0.265 0.512,0.372 0.728,0.363c0.217,-0.01 0.478,-0.135 0.797,-0.518c0.582,-0.702 1.185,-1.385 1.81,-2.048c-0.9,-0.781 -1.341,-1.971 -1.167,-3.15c0.103,-0.739 0.117,-1.43 0.105,-1.976c-0.012,-0.532 -0.05,-0.886 -0.05,-1.107l-0,-0.024l-0.001,-0.006c-0.001,-1.152 0.2,-2.295 0.592,-3.378c0.28,-0.744 0.697,-1.5 1.322,-2.112c-0.614,-0.202 -1.704,-0.51 -2.884,-0.568c-0.127,-0.006 -0.253,-0.01 -0.38,-0.01l0.001,0.001Zm12.398,5.282c-0.68,0.01 -1.06,0.184 -1.26,0.413c-0.283,0.325 -0.31,0.895 -0.134,1.597c0.175,0.703 0.537,1.49 0.877,2.142c0.17,0.327 0.335,0.621 0.468,0.86c0.134,0.24 0.232,0.41 0.292,0.555c0.055,0.134 0.116,0.252 0.178,0.362c0.263,-0.555 0.31,-1.1 0.283,-1.668c-0.035,-0.703 -0.198,-1.422 -0.174,-2.15c0.027,-0.85 0.195,-1.405 0.21,-2.063c-0.245,-0.032 -0.493,-0.048 -0.74,-0.048Zm-8.234,0.115c-0.207,0.002 -0.414,0.027 -0.616,0.074c-0.403,0.098 -0.79,0.249 -1.153,0.45c-0.123,0.065 -0.24,0.141 -0.35,0.227l-0.021,0.02c0.006,0.146 0.035,0.5 0.047,1.021c0.012,0.57 -0.002,1.297 -0.112,2.084c-0.24,1.71 1.002,3.126 2.46,3.128c0.085,-0.35 0.225,-0.707 0.365,-1.082c0.406,-1.094 1.205,-1.892 0.532,-5.006c-0.11,-0.51 -0.328,-0.716 -0.628,-0.832c-0.168,-0.059 -0.346,-0.088 -0.524,-0.084Zm7.917,0.204l0.05,-0c0.061,0.001 0.121,0.008 0.18,0.022c0.054,0.012 0.1,0.03 0.138,0.055c0.039,0.024 0.067,0.064 0.075,0.11l-0.001,0.008c0.002,0.047 -0.01,0.094 -0.035,0.135c-0.029,0.055 -0.067,0.105 -0.11,0.15c-0.101,0.112 -0.237,0.186 -0.386,0.212c-0.145,0.017 -0.291,-0.019 -0.41,-0.103c-0.049,-0.033 -0.093,-0.073 -0.13,-0.118c-0.032,-0.036 -0.054,-0.08 -0.063,-0.127c-0.004,-0.047 0.011,-0.093 0.042,-0.128c0.033,-0.037 0.073,-0.068 0.117,-0.09c0.096,-0.054 0.226,-0.094 0.373,-0.116c0.055,-0.008 0.109,-0.012 0.16,-0.013l-0,0.003Zm-7.82,0.168c0.053,-0 0.109,0.005 0.166,0.013c0.153,0.021 0.289,0.062 0.393,0.122c0.051,0.026 0.096,0.062 0.133,0.106c0.041,0.047 0.06,0.108 0.054,0.17c-0.01,0.057 -0.036,0.111 -0.075,0.154c-0.041,0.05 -0.089,0.094 -0.143,0.13c-0.13,0.092 -0.29,0.132 -0.448,0.113c-0.162,-0.027 -0.31,-0.107 -0.42,-0.228c-0.047,-0.049 -0.087,-0.104 -0.118,-0.164c-0.033,-0.053 -0.047,-0.115 -0.041,-0.177c0.015,-0.108 0.104,-0.164 0.19,-0.195c0.099,-0.032 0.204,-0.045 0.308,-0.04l0.001,-0.004Zm9.06,7.343l-0.003,0.001c-0.147,0.053 -0.268,0.075 -0.37,0.12c-0.103,0.039 -0.189,0.116 -0.24,0.214c-0.062,0.115 -0.116,0.32 -0.1,0.666c0.045,0.031 0.095,0.055 0.148,0.07c0.17,0.052 0.458,0.086 0.778,0.081c0.638,-0.007 1.423,-0.156 1.84,-0.35c0.342,-0.159 0.66,-0.366 0.943,-0.615l-0.001,-0c-1.393,0.288 -2.18,0.211 -2.663,0.012c-0.12,-0.05 -0.232,-0.117 -0.332,-0.2l-0,0.001Zm-8.031,0.094l-0.021,-0c-0.053,0.005 -0.13,0.023 -0.28,0.188c-0.347,0.39 -0.47,0.635 -0.756,0.864c-0.287,0.228 -0.66,0.35 -1.405,0.503c-0.159,0.028 -0.314,0.077 -0.461,0.144c0.029,0.024 0.026,0.03 0.07,0.053c0.109,0.06 0.249,0.113 0.362,0.142c0.32,0.08 0.846,0.173 1.395,0.08c0.549,-0.094 1.12,-0.357 1.607,-1.04c0.084,-0.118 0.093,-0.292 0.024,-0.479c-0.07,-0.187 -0.223,-0.348 -0.331,-0.393c-0.064,-0.031 -0.133,-0.051 -0.204,-0.06l-0,-0.002Z" style="fill:#336791;fill-rule:nonzero;"/></svg>