<?xml version="1.0" encoding="UTF-8" standalone="no"?><!DOCTYPE svg PUBLIC "-//W3C//DTD SVG 1.1//EN" "http://www.w3.org/Graphics/SVG/1.1/DTD/svg11.dtd"><svg width="100%" height="100%" viewBox="0 0 512 512" version="1.1" xmlns="http://www.w3.org/2000/svg" xmlns:xlink="http://www.w3.org/1999/xlink" xml:space="preserve" xmlns:serif="http://www.serif.com/" style="fill-rule:evenodd;clip-rule:evenodd;"><g><path d="M256,0l222,128l0,256l-222,128l-222,-128l0,-256l222,-128Z" style="fill:#673ab8;fill-rule:nonzero;"/><path d="M411.497,136.683c25.199,32.84 -24.019,112.966 -109.84,178.819c-85.821,65.852 -175.955,92.655 -201.154,59.815c-25.199,-32.84 24.019,-112.966 109.84,-178.819c85.821,-65.852 175.955,-92.655 201.154,-59.815Z" style="fill:none;stroke:#fff;stroke-width:16px;"/><path d="M100.503,136.683c25.199,-32.84 115.333,-6.037 201.154,59.815c85.821,65.853 135.039,145.979 109.84,178.819c-25.199,32.84 -115.333,6.037 -201.154,-59.815c-85.821,-65.853 -135.039,-145.979 -109.84,-178.819Z" style="fill:none;stroke:#fff;stroke-width:16px;"/><circle cx="256" cy="256" r="34" style="fill:#fff;"/></g></svg>