<?xml version="1.0" encoding="UTF-8" standalone="no"?><!DOCTYPE svg PUBLIC "-//W3C//DTD SVG 1.1//EN" "http://www.w3.org/Graphics/SVG/1.1/DTD/svg11.dtd"><svg width="100%" height="100%" viewBox="0 0 512 512" version="1.1" xmlns="http://www.w3.org/2000/svg" xmlns:xlink="http://www.w3.org/1999/xlink" xml:space="preserve" xmlns:serif="http://www.serif.com/" style="fill-rule:evenodd;clip-rule:evenodd;stroke-linejoin:round;stroke-miterlimit:2;"><g><g><path id="p" d="M253.478,15.118c-20.179,-0 -39.096,1.261 -55.492,5.044c-49.185,8.828 -58.013,26.485 -58.013,59.275l-0,44.141l116.027,-0l0,15.134l-158.907,-0c-34.051,-0 -63.058,20.178 -73.147,58.013c-10.09,44.141 -10.09,71.887 -0,117.289c8.828,35.312 29.007,59.274 61.797,59.274l40.357,0l0,-52.969c0,-37.835 32.79,-71.886 71.886,-71.886l114.766,0c32.791,0 58.014,-26.484 58.014,-58.014l-0,-110.982c-0,-30.268 -26.485,-54.23 -58.014,-59.275c-18.917,-3.783 -40.357,-5.044 -59.274,-5.044Zm-63.059,35.312c12.612,0 21.44,10.09 21.44,22.701c0,11.351 -8.828,21.44 -21.44,21.44c-11.35,-0 -21.439,-10.089 -21.439,-21.44c-0,-12.611 10.089,-22.701 21.439,-22.701Z" style="fill:#5a9fd4;fill-rule:nonzero;"/><path id="p1" serif:id="p" d="M258.522,496.882c20.179,0 39.096,-1.261 55.492,-5.044c49.185,-8.828 58.013,-26.485 58.013,-59.275l0,-44.141l-116.027,0l-0,-15.134l158.907,0c34.051,0 63.058,-20.178 73.147,-58.013c10.09,-44.141 10.09,-71.887 0,-117.289c-8.828,-35.312 -29.007,-59.274 -61.797,-59.274l-40.357,-0l-0,52.969c-0,37.835 -32.79,71.886 -71.886,71.886l-114.766,-0c-32.791,-0 -58.014,26.484 -58.014,58.014l0,110.982c0,30.268 26.485,54.23 58.014,59.275c18.917,3.783 40.357,5.044 59.274,5.044Zm63.059,-35.312c-12.612,-0 -21.44,-10.09 -21.44,-22.701c-0,-11.351 8.828,-21.44 21.44,-21.44c11.35,0 21.439,10.089 21.439,21.44c0,12.611 -10.089,22.701 -21.439,22.701Z" style="fill:#ffd43b;fill-rule:nonzero;"/></g></g></svg>